<svg width="341" height="64" viewBox="0 0 341 64" fill="none" xmlns="http://www.w3.org/2000/svg">
<path d="M58.3357 26.2505C58.3357 23.2066 60.8033 20.7391 63.8472 20.7391H75.4213C81.5091 20.7391 86.4443 25.6742 86.4443 31.762V31.762H63.8472C60.8033 31.762 58.3357 29.2944 58.3357 26.2505V26.2505Z" fill="white"/>
<path d="M44.9014 11.949L54.7253 5.07026L89.0711 54.1212V54.1212C83.6455 57.9203 76.1675 56.6017 72.3684 51.1761L44.9014 11.949Z" fill="white"/>
<path d="M61.1694 11.949L51.3455 5.07026L16.9997 54.1212V54.1212C22.4253 57.9203 29.9033 56.6017 33.7024 51.1761L61.1694 11.949Z" fill="white"/>
<path d="M19.7554 2H75.4214C81.5092 2 86.4443 6.93515 86.4443 13.023V13.023H30.7783C24.6905 13.023 19.7554 8.08782 19.7554 2V2Z" fill="white"/>
<path d="M122.509 17.0481H105.492V12H131.84L112.596 45.4962H131.044V50.6494H103L122.509 17.0481Z" fill="white"/>
<path d="M145.592 24.8481L158.103 50.6494H153.544L151.317 45.6013H139.407L137.18 50.6494H132.763L145.203 24.8481H145.592ZM143.825 35.8207L140.997 42.0607H149.762L146.97 35.8557L145.451 32.3151H145.38L143.825 35.8207Z" fill="white"/>
<path d="M160.244 24.8831H172.437V28.2836H164.167V35.5753H170.599V39.0108H164.167V50.6494H160.244V24.8831Z" fill="white"/>
<path d="M189.748 50.6494L184.517 40.9038C183.433 40.9506 182.467 40.9739 181.619 40.9739H180.629V50.6494H176.777V24.8831H182.679C185.672 24.8831 188.134 25.5025 190.066 26.7411C191.998 27.9564 192.964 29.9429 192.964 32.7007C192.964 34.4301 192.552 35.9258 191.727 37.1879C190.926 38.4265 189.724 39.3847 188.122 40.0625L194.307 50.6494H189.748ZM183.139 37.7838C185.448 37.7838 187.026 37.293 187.875 36.3115C188.746 35.3065 189.182 34.1146 189.182 32.7357C189.182 29.6742 187.121 28.1434 182.997 28.1434H180.629V37.7838H183.139Z" fill="white"/>
<path d="M207.856 24.8481L220.367 50.6494H215.808L213.581 45.6013H201.671L199.444 50.6494H195.026L207.467 24.8481H207.856ZM206.089 35.8207L203.261 42.0607H212.026L209.234 35.8557L207.714 32.3151H207.644L206.089 35.8207Z" fill="white"/>
<path d="M233.667 12H243.051C250.897 12 256.375 13.8404 259.485 17.5213C262.631 21.2022 264.203 25.5843 264.203 30.6674C264.203 34.2081 263.532 37.4858 262.189 40.5007C260.846 43.4804 258.619 45.9169 255.509 47.8099C252.434 49.7029 248.388 50.6494 243.369 50.6494H233.667V12ZM244.005 45.4436C248.882 45.4436 252.417 44.0764 254.608 41.342C256.834 38.5726 257.948 35.102 257.948 30.9303C257.948 26.8638 256.834 23.551 254.608 20.9919C252.381 18.4328 248.847 17.1533 244.005 17.1533H239.605V45.4436H244.005Z" fill="white"/>
<path d="M268.752 24.8831H280.133V28.3187H272.675V35.4351H278.684V38.9407H272.675V47.1789H281.299V50.6494H268.752V24.8831Z" fill="white"/>
<path d="M281.963 24.8831H286.452L294.227 42.5865L302.038 24.8831H306.491L294.51 50.6494H293.98L281.963 24.8831Z" fill="white"/>
<path d="M314.659 51C313.245 51 311.844 50.7546 310.453 50.2638C309.063 49.773 308.062 49.2238 307.449 48.6162L309.322 45.2858C309.817 45.7299 310.583 46.1973 311.62 46.6881C312.68 47.1555 313.693 47.3892 314.659 47.3892C315.908 47.3892 316.921 47.0971 317.699 46.5128C318.5 45.9285 318.9 45.1222 318.9 44.0939C318.9 43.2993 318.688 42.6099 318.264 42.0256C317.84 41.4413 317.322 40.9622 316.709 40.5883C316.096 40.191 315.225 39.7119 314.094 39.151C312.751 38.4966 311.832 38.0058 311.337 37.6787C309.051 36.1596 307.909 34.0562 307.909 31.3685C307.909 29.1483 308.651 27.4539 310.135 26.2854C311.62 25.0935 313.493 24.4975 315.755 24.4975C318.182 24.4975 320.243 25.187 321.94 26.5658L320.067 29.756C319.619 29.2885 318.983 28.8912 318.158 28.564C317.357 28.2135 316.497 28.0382 315.578 28.0382C314.4 28.0382 313.469 28.307 312.786 28.8445C312.126 29.3587 311.796 30.1299 311.796 31.1582C311.796 31.8827 312.008 32.5371 312.433 33.1213C312.857 33.6822 313.387 34.173 314.023 34.5937C314.683 35.0144 315.566 35.5285 316.674 36.1362C317.734 36.7204 318.547 37.1879 319.112 37.5384C319.678 37.8656 320.208 38.2629 320.703 38.7303C321.386 39.338 321.94 40.0625 322.364 40.9038C322.788 41.7452 323 42.6683 323 43.6733C323 45.2391 322.635 46.5712 321.904 47.6697C321.198 48.7681 320.208 49.5978 318.936 50.1587C317.687 50.7196 316.261 51 314.659 51Z" fill="white"/>
<path d="M122.509 17.0481H105.492V12H131.84L112.596 45.4962H131.044V50.6494H103L122.509 17.0481Z" stroke="white" stroke-width="2"/>
<path d="M145.592 24.8481L158.103 50.6494H153.544L151.317 45.6013H139.407L137.18 50.6494H132.763L145.203 24.8481H145.592ZM143.825 35.8207L140.997 42.0607H149.762L146.97 35.8557L145.451 32.3151H145.38L143.825 35.8207Z" stroke="white" stroke-width="2"/>
<path d="M160.244 24.8831H172.437V28.2836H164.167V35.5753H170.599V39.0108H164.167V50.6494H160.244V24.8831Z" stroke="white" stroke-width="2"/>
<path d="M189.748 50.6494L184.517 40.9038C183.433 40.9506 182.467 40.9739 181.619 40.9739H180.629V50.6494H176.777V24.8831H182.679C185.672 24.8831 188.134 25.5025 190.066 26.7411C191.998 27.9564 192.964 29.9429 192.964 32.7007C192.964 34.4301 192.552 35.9258 191.727 37.1879C190.926 38.4265 189.724 39.3847 188.122 40.0625L194.307 50.6494H189.748ZM183.139 37.7838C185.448 37.7838 187.026 37.293 187.875 36.3115C188.746 35.3065 189.182 34.1146 189.182 32.7357C189.182 29.6742 187.121 28.1434 182.997 28.1434H180.629V37.7838H183.139Z" stroke="white" stroke-width="2"/>
<path d="M207.856 24.8481L220.367 50.6494H215.808L213.581 45.6013H201.671L199.444 50.6494H195.026L207.467 24.8481H207.856ZM206.089 35.8207L203.261 42.0607H212.026L209.234 35.8557L207.714 32.3151H207.644L206.089 35.8207Z" stroke="white" stroke-width="2"/>
<path d="M233.667 12H243.051C250.897 12 256.375 13.8404 259.485 17.5213C262.631 21.2022 264.203 25.5843 264.203 30.6674C264.203 34.2081 263.532 37.4858 262.189 40.5007C260.846 43.4804 258.619 45.9169 255.509 47.8099C252.434 49.7029 248.388 50.6494 243.369 50.6494H233.667V12ZM244.005 45.4436C248.882 45.4436 252.417 44.0764 254.608 41.342C256.834 38.5726 257.948 35.102 257.948 30.9303C257.948 26.8638 256.834 23.551 254.608 20.9919C252.381 18.4328 248.847 17.1533 244.005 17.1533H239.605V45.4436H244.005Z" stroke="white" stroke-width="2"/>
<path d="M268.752 24.8831H280.133V28.3187H272.675V35.4351H278.684V38.9407H272.675V47.1789H281.299V50.6494H268.752V24.8831Z" stroke="white" stroke-width="2"/>
<path d="M281.963 24.8831H286.452L294.227 42.5865L302.038 24.8831H306.491L294.51 50.6494H293.98L281.963 24.8831Z" stroke="white" stroke-width="2"/>
<path d="M314.659 51C313.245 51 311.844 50.7546 310.453 50.2638C309.063 49.773 308.062 49.2238 307.449 48.6162L309.322 45.2858C309.817 45.7299 310.583 46.1973 311.62 46.6881C312.68 47.1555 313.693 47.3892 314.659 47.3892C315.908 47.3892 316.921 47.0971 317.699 46.5128C318.5 45.9285 318.9 45.1222 318.9 44.0939C318.9 43.2993 318.688 42.6099 318.264 42.0256C317.84 41.4413 317.322 40.9622 316.709 40.5883C316.096 40.191 315.225 39.7119 314.094 39.151C312.751 38.4966 311.832 38.0058 311.337 37.6787C309.051 36.1596 307.909 34.0562 307.909 31.3685C307.909 29.1483 308.651 27.4539 310.135 26.2854C311.62 25.0935 313.493 24.4975 315.755 24.4975C318.182 24.4975 320.243 25.187 321.94 26.5658L320.067 29.756C319.619 29.2885 318.983 28.8912 318.158 28.564C317.357 28.2135 316.497 28.0382 315.578 28.0382C314.4 28.0382 313.469 28.307 312.786 28.8445C312.126 29.3587 311.796 30.1299 311.796 31.1582C311.796 31.8827 312.008 32.5371 312.433 33.1213C312.857 33.6822 313.387 34.173 314.023 34.5937C314.683 35.0144 315.566 35.5285 316.674 36.1362C317.734 36.7204 318.547 37.1879 319.112 37.5384C319.678 37.8656 320.208 38.2629 320.703 38.7303C321.386 39.338 321.94 40.0625 322.364 40.9038C322.788 41.7452 323 42.6683 323 43.6733C323 45.2391 322.635 46.5712 321.904 47.6697C321.198 48.7681 320.208 49.5978 318.936 50.1587C317.687 50.7196 316.261 51 314.659 51Z" stroke="white" stroke-width="2"/>
</svg>
